<svg xmlns="http://www.w3.org/2000/svg" width="106" height="21" viewBox="0 0 106 21" fill="none">
<path d="M15.1712 0.591797H7.53976L0 20.4627H6.74911L7.67732 17.567H14.7703L15.6984 20.4627H22.7226L15.1712 0.591797ZM9.01798 13.129L11.2982 6.117L13.4066 13.129H9.01798Z" fill="#002857"/>
<path d="M25.085 0.591797H31.7195V15.359H42.1813V20.4627H25.085V0.591797Z" fill="#002857"/>
<path d="M41.9395 0.591797V5.60659H48.6886V20.3739H55.2315V5.69537H61.8432V0.591797H41.9395Z" fill="#002857"/>
<path d="M64.9707 0.591797V20.3739H82.8462V15.6585H71.502V12.6075H81.0013V8.09183H71.502V5.31818H82.6056V0.591797H64.9707Z" fill="#002857"/>
<path d="M99.7593 8.79004C99.7708 8.6125 99.7707 8.37952 99.7249 8.09098C99.679 7.73602 99.5875 7.10363 99.152 6.44901C98.9916 6.20492 98.602 5.70562 97.903 5.35066C96.929 4.85137 95.9894 4.98446 95.5196 5.0399C95.0727 5.10657 94.4081 5.19522 93.7549 5.6834C93.0675 6.19381 92.7925 6.85953 92.6091 7.32549C92.3914 7.858 92.3456 8.26852 92.2653 9.05623C92.208 9.58886 92.1164 10.7094 92.2768 12.1961C92.4143 13.461 92.6206 13.8936 92.6893 14.0379C92.8039 14.2709 93.0904 14.8257 93.7091 15.3027C94.5227 15.924 95.3936 16.0128 95.7717 16.0571C96.1727 16.0904 97.3415 16.2014 98.4072 15.4692C99.9427 14.4151 99.9312 12.5178 99.9312 12.3293C101.948 12.3293 103.976 12.3293 105.993 12.3293C106.027 13.1504 105.981 15.1252 104.675 17.0446C104.492 17.3109 103.816 18.265 102.555 19.1304C99.9083 20.9389 96.9175 20.7614 95.5884 20.6837C93.6633 20.5727 90.5695 20.3953 88.2204 18.0764C85.9172 15.7909 85.7682 12.8507 85.6652 10.9424C85.5735 9.01191 85.413 6.02738 87.4985 3.53103C90.1226 0.38006 94.3851 0.313511 95.9779 0.280301C97.8227 0.246963 101.008 0.191531 103.46 2.53256C105.901 4.85137 105.993 7.93566 105.993 8.70127C103.919 8.72349 101.845 8.7567 99.7593 8.79004Z" fill="#002857"/>
</svg>